<svg width="867" height="444" viewBox="0 0 867 444" fill="none" xmlns="http://www.w3.org/2000/svg">
<g clip-path="url(#clip0_566_105)">
<path d="M828.335 244.952L825.62 266.574L818.881 320.278H683.498C684.555 308.241 686 290.916 687.544 272.213C687.696 270.345 687.856 268.465 688.008 266.574C691.88 219.559 696.116 166.357 696.116 166.357L713.915 169.673L748.447 176.094L762.519 178.709L800.2 185.726C818.987 189.217 831.91 216.419 828.335 244.952Z" fill="#F2F2F2"/>
<path d="M725.93 79.3574L742.579 108.491L710.58 131.168L696.93 95.3574L725.93 79.3574Z" fill="#FFDC81"/>
<path d="M440.989 108.562C463.768 108.562 482.233 90.0967 482.233 67.3183C482.233 44.5398 463.768 26.0742 440.989 26.0742C418.211 26.0742 399.745 44.5398 399.745 67.3183C399.745 90.0967 418.211 108.562 440.989 108.562Z" fill="#FFDC81"/>
<path d="M438.028 76.5382C434.753 71.554 436.038 68.9471 433.296 67.1154C433.296 67.1154 432.193 66.3783 424.297 65.9581C422.529 53.2342 420.322 51.6912 420.322 51.6911C417.779 49.9128 414.004 50.4906 411.656 51.5783C406.689 53.8787 407.265 58.8478 403.921 59.7986C399.302 61.1122 390.897 53.7071 390.069 45.2297C389.394 38.3146 393.849 31.5983 395.616 31.9536C397.368 32.3058 401.563 26.9506 403.828 27.0332C405.375 27.0896 411.695 24.3427 413.395 24.5574C415.251 24.792 421.373 27.9867 421.628 27.2568C423.401 22.1848 422.88 20.7775 424.384 19.3265C427.05 16.7553 431.41 18.5458 438.25 19.5071C452.325 21.4848 454.781 16.8441 461.994 19.9896C465.637 21.5786 468.686 25.8638 474.635 34.3694C482.954 46.2644 487.114 52.2119 487.141 59.1488C487.168 66.2232 483.742 65.7741 482.237 76.2472C480.562 87.9054 484.121 93.2363 480.233 97.0238C477.228 99.9511 471.12 100.646 467.911 98.0768C462.417 93.6783 469.607 83.0645 463.527 75.3101C459.795 70.5501 452.289 68.4322 448.851 70.7851C444.963 73.4455 447.105 81.2544 444.371 81.9949C442.03 82.629 438.598 77.4068 438.028 76.5382Z" fill="#2F2E41"/>
<path d="M797.85 237.337C796.7 257.007 792.13 263.217 790.53 286.447C790.18 291.547 789.97 297.467 789.97 304.527C789.97 306.327 789.98 308.067 789.98 309.767C789.98 313.387 789.911 316.807 789.49 320.277C789.17 323.047 788.621 325.837 787.71 328.777H698.88C698.871 328.757 698.871 328.737 698.86 328.717C698.34 326.457 698.01 324.297 697.76 322.227C697.68 321.567 697.61 320.917 697.55 320.277C697.47 319.527 697.4 318.787 697.331 318.057C697.06 315.147 696.791 312.397 696.15 309.767C695.291 306.137 693.73 302.717 690.53 299.417C689.22 298.067 687.911 297.017 686.63 296.098C686.38 295.927 686.14 295.757 685.89 295.587C682.35 293.157 679 291.407 676.1 286.447C676.05 286.377 676.01 286.297 675.97 286.227C675.47 285.357 674.17 283.077 673.23 280.037C672.24 276.877 671.64 272.907 672.72 268.848C675.291 259.227 684.81 258.267 692.59 248.547C693.43 247.497 694.26 246.337 695.05 245.047C698.57 239.327 699.52 234.287 700.64 228.297C700.82 227.327 700.98 226.367 701.11 225.437C701.21 224.737 701.3 224.047 701.371 223.367C701.99 217.657 701.69 212.737 700.96 208.337C698.581 193.927 691.56 185.007 696.52 172.077C698.081 168.017 700.291 164.967 702.52 162.357C707.24 156.827 712.09 153.237 711.25 146.098C710.4 138.897 704.94 137.907 704.331 131.617C704.02 128.437 705.06 125.087 707.01 121.797V121.787C713.25 111.197 728.831 101.447 738.73 101.757C740.56 101.807 742.18 102.217 743.53 103.007C748.42 105.887 746.38 112.177 753.871 120.997C759.44 127.547 765.74 130.167 768.13 131.407C777.6 136.348 785.3 150.917 790.53 169.547C790.57 169.687 790.61 169.827 790.65 169.977C793.88 181.647 796.161 194.897 797.291 208.337C797.77 214.027 798.05 219.747 798.11 225.407C798.161 229.927 798.06 233.848 797.85 237.337Z" fill="#0A4D78"/>
<path d="M731.331 304.728L729.52 309.768L728.38 312.927L725.74 320.277L722.68 328.777H703.01L706.31 320.277L707.84 316.317L710.38 309.768L714.64 298.768L731.331 304.728Z" fill="#FFB6B6"/>
<path d="M790.84 167.827C790.791 168.477 790.72 169.197 790.65 169.977C789.871 177.917 788.03 192.127 785.34 208.337C783.92 216.887 782.26 225.997 780.39 235.047C776.371 254.577 771.371 273.807 765.72 286.447C764.71 288.727 763.67 290.787 762.61 292.607C761.8 293.997 760.95 295.367 760.06 296.717C757.18 301.147 753.95 305.347 750.6 309.267C750.47 309.437 750.32 309.597 750.17 309.767C749.63 310.407 749.07 311.037 748.51 311.667C745.77 314.757 742.97 317.637 740.26 320.277C736.96 323.497 733.78 326.347 730.93 328.777H698.99L698.86 328.717L694.26 326.677C694.26 326.677 695.57 325.137 697.76 322.227C698.21 321.637 698.69 320.987 699.21 320.277C699.85 319.407 700.541 318.447 701.28 317.407C702.82 315.227 704.57 312.667 706.45 309.767C710.09 304.157 714.24 297.257 718.43 289.267C718.911 288.337 719.4 287.397 719.89 286.447C719.9 286.417 719.92 286.387 719.93 286.357C720.76 284.737 721.581 283.067 722.4 281.367C729.35 266.907 731.34 254.907 731.911 251.017C732.71 245.517 733.82 237.827 733.52 229.367C733.32 223.787 732.51 217.887 730.581 212.027V212.017C730.18 210.787 729.73 209.557 729.22 208.337C728.31 206.147 727.23 203.987 725.95 201.857C720.3 192.477 715.71 192.087 712.06 181.867C710.98 178.837 708.53 171.997 709.28 164.777V164.767C709.371 163.877 709.52 162.977 709.72 162.077V162.067C709.77 161.817 709.84 161.557 709.911 161.307C710.48 159.097 711.42 156.907 712.85 154.827C715.64 150.787 719.45 148.387 722.86 146.957L722.871 146.947C726.81 145.307 730.21 144.957 730.871 144.897C745.48 143.597 756.81 155.877 763 162.587C765.39 165.177 767.581 167.347 769.581 169.117C785.15 183.017 789.42 174.137 790.53 169.547C790.7 168.837 790.791 168.227 790.84 167.827Z" fill="#0A4D78"/>
<path d="M790.89 167.308C790.89 167.357 790.88 167.527 790.84 167.808C790.86 167.657 790.871 167.507 790.88 167.367C790.88 167.337 790.88 167.317 790.89 167.308Z" fill="#6C63FF"/>
<path d="M711.47 378.317H175.42C170.44 378.317 166.38 382.367 166.38 387.348C166.38 392.337 170.44 396.387 175.42 396.387H711.47C716.45 396.387 720.5 392.337 720.5 387.348C720.5 382.367 716.45 378.317 711.47 378.317Z" fill="#E6E6E6"/>
<path d="M592.51 424.998H294.37C289.39 424.998 285.34 429.048 285.34 434.028C285.34 439.008 289.39 443.068 294.37 443.068H592.51C597.49 443.068 601.55 439.008 601.55 434.028C601.55 429.048 597.49 424.998 592.51 424.998Z" fill="#E6E6E6"/>
<path d="M235.069 81.2744L268.853 67.0566L283.344 96.7621L247.842 111.253L235.069 81.2744Z" fill="#A0616A"/>
<path opacity="0.1" d="M222 83.2177L255.784 69L270.274 98.7055L234.772 113.196L222 83.2177Z" fill="#FFDC81"/>
<path d="M239.872 69.9547L273.2 108.354C273.2 108.354 250.016 181.531 226.831 188.052C203.646 194.573 160.899 226.452 160.899 226.452L107.284 191.675L133.367 153.275C133.367 153.275 196.401 67.0566 213.065 67.0566C229.729 67.0566 239.872 69.9547 239.872 69.9547Z" fill="#0A4D78"/>
<path d="M194.843 320.278H117.261L112.356 313.721L92.3303 286.95L87.7223 280.791C87.7223 280.791 70.3337 248.912 73.9564 219.931C77.579 190.95 115.254 184.43 115.254 184.43H116.805L162.928 224.959L160.175 262.678L174.781 286.95L194.843 320.278Z" fill="#2F2E41"/>
<path d="M133.15 320.278H112.356V289.485L133.15 320.278Z" fill="#2F2E41"/>
<path d="M581.644 273.532L579.058 286.95L572.638 320.278H443.681C444.688 312.808 446.064 302.056 447.535 290.449C447.68 289.29 447.832 288.124 447.977 286.95C451.665 257.773 455.7 224.757 455.7 224.757L472.654 226.815L505.547 230.799L518.951 232.422L554.844 236.777C572.74 238.943 585.049 255.824 581.644 273.532Z" fill="#F2F2F2"/>
<path d="M764.144 320.278H694.199C695.264 319.024 695.865 318.3 695.865 318.3L716.833 314.836L760.036 307.707C760.036 307.707 762.007 312.8 764.144 320.278Z" fill="#2F2E41"/>
<path d="M467.455 95.7666L497.873 138.785L444.814 140.369L439.119 99.9423L467.455 95.7666Z" fill="#FFDC81"/>
<path d="M317.446 184.896C313.543 173.637 304.57 166.525 297.405 169.01C290.24 171.495 287.597 182.635 291.503 193.898C293.002 198.418 295.561 202.514 298.967 205.842L316.107 253.339L338.224 244.821L318.979 198.902C319.594 194.178 319.068 189.375 317.446 184.896Z" fill="#FFDC81"/>
<path d="M523.347 162.977L523.306 206.818L519.227 223.011L510.837 256.317L504.729 286.95L500.179 309.773L498.556 317.924C497.331 318.742 496.114 319.525 494.897 320.278H388.921C382.9 316.663 379.531 313.852 379.531 313.852C379.531 313.852 381.198 312.287 383.103 309.773C386.32 305.527 390.211 298.572 387.827 291.928C387.327 290.537 387.197 288.841 387.349 286.95C388.32 274.474 401.405 253.376 401.405 253.376L398.695 222.062L397.507 208.34L405.884 141.429L433.192 125.555L437.906 125.099L484.442 122.585L503.677 123.693L504.553 123.933L523.347 162.977Z" fill="#999999"/>
<path d="M525.414 320.278H502.229L501.208 309.772L501.186 309.562L507.75 309.113L524.827 307.946L525.124 314.235L525.356 319.061L525.414 320.278Z" fill="#FFB6B6"/>
<path d="M531.121 173.576L540.861 230.719L532.913 286.949L531.674 295.702L529.486 311.156L528.812 315.909L528.834 316.423L529 320.278H501.469L500.454 309.772L500.367 308.83L498.295 287.312L498.259 286.949L493.861 241.319L502.483 208.339L503.121 205.911V205.904L506.872 149.435L503.966 123.772L503.937 123.533C503.995 123.569 504.046 123.606 504.104 123.642C504.256 123.736 504.408 123.83 504.553 123.932C521.478 134.669 531.564 153.507 531.121 173.576Z" fill="#999999"/>
<path d="M415.748 152.378L405.16 141.428C405.16 141.428 382.496 151.645 381.366 157.314C380.237 162.983 340.22 246.239 340.22 246.239L322.81 199.741L300.148 214.871C300.148 214.871 318.332 287.063 335.338 290.452C352.344 293.841 409.339 205.006 409.339 205.006L415.748 152.378Z" fill="#999999"/>
<path d="M845.64 286.447H21.1602C9.49024 286.447 0 295.947 0 307.617C0 319.287 9.49023 328.777 21.1602 328.777H845.64C857.31 328.777 866.81 319.288 866.81 307.617C866.81 295.947 857.31 286.447 845.64 286.447Z" fill="#E6E6E6"/>
<path d="M518.522 221.94L516.919 296.742C516.764 303.983 510.85 309.772 503.607 309.772H366.004C358.933 309.772 353.095 304.244 352.709 297.184L348.619 222.381C348.202 214.753 354.275 208.339 361.915 208.339H505.21C512.675 208.339 518.682 214.476 518.522 221.94Z" fill="#3F3D56"/>
<path d="M296.385 99.3309C314.567 99.3309 329.307 84.5913 329.307 66.4091C329.307 48.2269 314.567 33.4873 296.385 33.4873C278.203 33.4873 263.463 48.2269 263.463 66.4091C263.463 84.5913 278.203 99.3309 296.385 99.3309Z" fill="#A0616A"/>
<path d="M241.321 152.551L244.944 191.675L269.578 290.935L248.296 298.394L212.34 190.226L207.374 146.755L241.321 152.551Z" fill="#A0616A"/>
<path d="M231.522 221.94L229.919 296.742C229.764 303.983 223.85 309.772 216.607 309.772H79.0043C71.9328 309.772 66.0947 304.244 65.7087 297.184L61.6194 222.381C61.2024 214.753 67.2754 208.339 74.9149 208.339H218.21C225.675 208.339 231.682 214.476 231.522 221.94Z" fill="#3F3D56"/>
<path d="M273.5 310.278C287.859 310.278 299.5 305.13 299.5 298.778C299.5 292.427 287.859 287.278 273.5 287.278C259.141 287.278 247.5 292.427 247.5 298.778C247.5 305.13 259.141 310.278 273.5 310.278Z" fill="#A0616A"/>
<path d="M190.242 158.533L205.095 79.3744C205.095 79.3744 246.393 73.5782 247.842 87.3441C249.291 101.11 246.806 168.386 246.806 168.386L190.242 158.533Z" fill="#0A4D78"/>
<path d="M283.095 71.5859C283.095 71.5859 303.461 64.3176 312.051 60.4068C320.642 56.4961 337.708 83.7732 338.088 69.3673C338.468 54.9613 332.57 48.9201 332.57 48.9201C332.57 48.9201 331.098 17.405 299.347 21.3451C299.347 21.3451 306.331 5.5778 283.406 3.13967C260.482 0.701545 224.817 56.0606 228.011 64.3338C231.205 72.6069 235.034 79.4466 225.972 88.2924C216.91 97.1382 199.942 147.062 212.852 160.496C225.762 173.93 226.61 179.759 217.764 188.117C208.918 196.474 188.01 214.647 210.617 217.802C233.224 220.957 208.549 218.6 225.402 203.776C242.256 188.951 266.85 189.556 257.667 165.771C248.484 141.986 264.438 107.902 262.442 102.731C260.446 97.5605 266.914 64.7262 266.914 64.7262C266.914 64.7262 281.969 62.5143 283.095 71.5859Z" fill="#2F2E41"/>
<path d="M692.827 114.337C712.619 114.337 728.664 98.2916 728.664 78.4989C728.664 58.7062 712.619 42.6611 692.827 42.6611C673.034 42.6611 656.989 58.7062 656.989 78.4989C656.989 98.2916 673.034 114.337 692.827 114.337Z" fill="#FFDC81"/>
<path d="M695.687 30.3174C694.65 30.9228 693.261 30.0069 692.928 28.8531C692.596 27.6993 692.983 26.4743 693.367 25.3366L695.301 19.6095C696.672 15.5476 698.128 11.3439 701.098 8.25229C705.58 3.58605 712.705 2.39898 719.118 3.25897C727.354 4.36337 735.48 8.82302 739.309 16.1976C743.139 23.5723 741.508 33.8625 734.589 38.4635C744.451 49.7669 747.888 62.3641 747.346 77.355C746.803 92.346 730.466 106.143 719.813 116.703C717.434 115.261 715.271 108.502 716.579 106.047C717.887 103.592 716.013 100.747 717.633 98.4854C719.253 96.2238 720.609 99.8249 718.971 97.5762C717.937 96.1572 721.972 92.8926 720.435 92.0433C713.004 87.9354 710.532 78.6722 705.864 71.5787C700.234 63.0226 690.599 57.2283 680.402 56.267C674.785 55.7375 668.852 56.6966 664.248 59.9576C659.643 63.2187 656.663 69.0462 657.73 74.5863C654.965 71.7788 653.589 67.6643 654.108 63.7581C654.627 59.8518 657.03 56.2397 660.433 54.2518C658.364 47.4104 660.136 39.5407 664.938 34.2466C669.74 28.9525 689.219 29.8542 696.229 31.2475L695.687 30.3174Z" fill="#2F2E41"/>
<path d="M696.775 56.4746C706.06 57.4769 712.764 65.5197 718.425 72.9471C721.688 77.2282 725.106 81.9559 725.024 87.3379C724.941 92.7793 721.303 97.4465 719.564 102.603C716.722 111.032 719.492 121.061 726.257 126.836C719.572 128.105 712.346 123.092 711.192 116.387C709.849 108.581 715.766 101.047 715.065 93.1572C714.448 86.2062 708.97 80.8566 704.313 75.6594C699.656 70.4622 695.283 63.5657 697.425 56.9244L696.775 56.4746Z" fill="#2F2E41"/>
<path d="M593.947 290.978C584.751 296.209 579.995 305.194 583.325 311.046C586.655 316.899 596.808 317.401 606.007 312.167C609.711 310.127 612.872 307.229 615.226 303.717L653.913 281.061L642.894 263.133L605.925 287.371C601.702 287.599 597.595 288.836 593.947 290.978Z" fill="#FFDC81"/>
<path d="M724.935 124.841C723.779 124.383 713.634 120.541 704.373 125.613C693.735 131.439 692.092 144.739 691.516 149.404C690.184 160.18 694.106 162.596 694.934 173.505C696.483 193.915 700.568 170.631 694.045 179.947C691.787 183.172 668.728 233.146 656.01 242.934C631.277 261.971 615.571 275.378 615.571 275.378L633.501 294.856C633.501 294.856 661.835 287.306 686.878 271.045C712.566 254.365 725.41 246.026 735.347 229.71C736.203 228.305 756.678 193.534 745.682 155.086C743.174 146.316 738.578 130.247 724.935 124.841Z" fill="#0A4D78"/>
<path d="M817.522 221.94L815.919 296.742C815.764 303.983 809.85 309.772 802.607 309.772H665.004C657.933 309.772 652.095 304.244 651.709 297.184L647.619 222.381C647.202 214.753 653.275 208.339 660.915 208.339H804.21C811.675 208.339 817.682 214.476 817.522 221.94Z" fill="#3F3D56"/>
</g>
<defs>
<clipPath id="clip0_566_105">
<rect width="866.81" height="443.068" fill="white"/>
</clipPath>
</defs>
</svg>
